<svg xmlns="http://www.w3.org/2000/svg" viewBox="0 0 220 180" role="img" aria-label="Mean gray squirrel mascot">
<defs><linearGradient id="fur" x1="0" y1="0" x2="1" y2="1"><stop stop-color="#d9dcdd"/><stop offset=".48" stop-color="#8b9194"/><stop offset="1" stop-color="#4c5255"/></linearGradient><linearGradient id="dark" x1="0" y1="0" x2="0" y2="1"><stop stop-color="#60676a"/><stop offset="1" stop-color="#2f3436"/></linearGradient></defs>
<path d="M70 137C18 129 10 79 35 49c18-22 46-22 58-7-28 2-39 19-30 36 7-15 25-24 42-16-16 9-21 28-12 42 13-10 31-11 43-4-8 33-36 47-66 37Z" fill="url(#fur)" stroke="#171b1c" stroke-width="8" stroke-linejoin="round"/>
<path d="M83 103c1-32 20-59 49-67 26-7 55 7 66 31 13 29-2 66-34 78-32 11-71-6-81-42Z" fill="url(#fur)" stroke="#171b1c" stroke-width="8"/>
<path d="M112 50 98 20l33 17m42 2 25-21-3 34" fill="url(#dark)" stroke="#171b1c" stroke-width="8" stroke-linejoin="round"/>
<path d="M112 73c13-10 26-11 38-3-10 1-18 6-23 14-6 0-11-4-15-11Zm43 6c11-8 22-7 31 0-8 1-14 5-18 11-6 0-10-4-13-11Z" fill="#fff" stroke="#171b1c" stroke-width="5" stroke-linejoin="round"/>
<path d="m124 75 12 6m30 1 10 5" stroke="#171b1c" stroke-width="6" stroke-linecap="round"/>
<path d="M140 98c10 3 20 2 28-3l10 12c-10 16-39 20-57 5 4-8 10-13 19-14Z" fill="#ecebea" stroke="#171b1c" stroke-width="6"/>
<path d="M146 101c5 8 4 16-2 23m9-22c5 8 5 15 0 22" stroke="#171b1c" stroke-width="4"/>
<path d="M119 115c-19 8-27 25-22 42 16-15 34-20 54-14" fill="url(#dark)" stroke="#171b1c" stroke-width="7" stroke-linecap="round"/>
<path d="M171 118c20 5 31 20 30 40-16-12-31-16-48-12" fill="url(#dark)" stroke="#171b1c" stroke-width="7" stroke-linecap="round"/>
<path d="M74 139c17 7 34 6 48-3" stroke="#f4f2ed" stroke-width="6" stroke-linecap="round" opacity=".5"/>
</svg>